<?xml version="1.0"?>
<!-- Generated by SVGo and Plotinum VG -->
<svg width="288pt" height="288pt" viewBox="0 0 288 288"
	xmlns="http://www.w3.org/2000/svg"
	xmlns:xlink="http://www.w3.org/1999/xlink">
<g transform="scale(1, -1) translate(0, -288)">
<path d="M0,0L288,0L288,288L0,288Z" style="fill:#FFFFFF" />
<text x="112.01" y="-278.61" transform="scale(1, -1)"
	style="font-family:Liberation Serif;font-variant:normal;font-weight:normal;font-style:normal;font-size:12px">Graph of f(x)</text>
<text x="162.07" y="-3.9023" transform="scale(1, -1)"
	style="font-family:Liberation Serif;font-variant:normal;font-weight:normal;font-style:normal;font-size:12px">x</text>
<text x="66.465" y="-16.541" transform="scale(1, -1)"
	style="font-family:Liberation Serif;font-variant:normal;font-weight:normal;font-style:normal;font-size:10px">0</text>
<text x="161.28" y="-16.541" transform="scale(1, -1)"
	style="font-family:Liberation Serif;font-variant:normal;font-weight:normal;font-style:normal;font-size:10px">40</text>
<text x="258.6" y="-16.541" transform="scale(1, -1)"
	style="font-family:Liberation Serif;font-variant:normal;font-weight:normal;font-style:normal;font-size:10px">80</text>
<path d="M68.965,24.363L68.965,32.363" style="fill:none;stroke:#000000;stroke-width:0.5" />
<path d="M166.28,24.363L166.28,32.363" style="fill:none;stroke:#000000;stroke-width:0.5" />
<path d="M263.6,24.363L263.6,32.363" style="fill:none;stroke:#000000;stroke-width:0.5" />
<path d="M93.294,28.363L93.294,32.363" style="fill:none;stroke:#000000;stroke-width:0.5" />
<path d="M117.62,28.363L117.62,32.363" style="fill:none;stroke:#000000;stroke-width:0.5" />
<path d="M141.95,28.363L141.95,32.363" style="fill:none;stroke:#000000;stroke-width:0.5" />
<path d="M190.61,28.363L190.61,32.363" style="fill:none;stroke:#000000;stroke-width:0.5" />
<path d="M214.94,28.363L214.94,32.363" style="fill:none;stroke:#000000;stroke-width:0.5" />
<path d="M239.27,28.363L239.27,32.363" style="fill:none;stroke:#000000;stroke-width:0.5" />
<path d="M44.635,32.363L285.5,32.363" style="fill:none;stroke:#000000;stroke-width:0.5" />
<g transform="rotate(90)">
<text x="154.46" y="9.3867" transform="scale(1, -1)"
	style="font-family:Liberation Serif;font-variant:normal;font-weight:normal;font-style:normal;font-size:12px">y</text>
</g>
<text x="20.885" y="-40.424" transform="scale(1, -1)"
	style="font-family:Liberation Serif;font-variant:normal;font-weight:normal;font-style:normal;font-size:10px">0</text>
<text x="15.885" y="-132.22" transform="scale(1, -1)"
	style="font-family:Liberation Serif;font-variant:normal;font-weight:normal;font-style:normal;font-size:10px">10</text>
<text x="15.885" y="-224.03" transform="scale(1, -1)"
	style="font-family:Liberation Serif;font-variant:normal;font-weight:normal;font-style:normal;font-size:10px">20</text>
<path d="M28.385,42.709L36.385,42.709" style="fill:none;stroke:#000000;stroke-width:0.5" />
<path d="M28.385,134.51L36.385,134.51" style="fill:none;stroke:#000000;stroke-width:0.5" />
<path d="M28.385,226.31L36.385,226.31" style="fill:none;stroke:#000000;stroke-width:0.5" />
<path d="M32.385,61.069L36.385,61.069" style="fill:none;stroke:#000000;stroke-width:0.5" />
<path d="M32.385,79.429L36.385,79.429" style="fill:none;stroke:#000000;stroke-width:0.5" />
<path d="M32.385,97.789L36.385,97.789" style="fill:none;stroke:#000000;stroke-width:0.5" />
<path d="M32.385,116.15L36.385,116.15" style="fill:none;stroke:#000000;stroke-width:0.5" />
<path d="M32.385,152.87L36.385,152.87" style="fill:none;stroke:#000000;stroke-width:0.5" />
<path d="M32.385,171.23L36.385,171.23" style="fill:none;stroke:#000000;stroke-width:0.5" />
<path d="M32.385,189.59L36.385,189.59" style="fill:none;stroke:#000000;stroke-width:0.5" />
<path d="M32.385,207.95L36.385,207.95" style="fill:none;stroke:#000000;stroke-width:0.5" />
<path d="M32.385,244.67L36.385,244.67" style="fill:none;stroke:#000000;stroke-width:0.5" />
<path d="M32.385,263.03L36.385,263.03" style="fill:none;stroke:#000000;stroke-width:0.5" />
<path d="M36.385,42.709L36.385,272.21" style="fill:none;stroke:#000000;stroke-width:0.5" />
<path d="M44.635,42.709L47.068,42.709L49.501,42.709L51.934,42.709L54.367,42.709L56.8,42.709L59.233,42.709L61.666,42.709L64.099,42.709L66.532,42.709L68.965,42.709L71.398,45.769L73.831,48.829L76.264,51.889L78.697,54.949L81.129,58.009L83.562,61.069L85.995,64.129L88.428,67.189L90.861,70.249L93.294,73.309L95.727,76.369L98.16,79.429L100.59,82.489L103.03,85.549L105.46,88.609L107.89,91.669L110.33,94.729L112.76,97.789L115.19,100.85L117.62,103.91L120.06,106.97L122.49,110.03L124.92,113.09L127.36,116.15L129.79,119.21L132.22,122.27L134.66,125.33L137.09,128.39L139.52,131.45L141.95,134.51L144.39,137.57L146.82,140.63L149.25,143.69L151.69,146.75L154.12,149.81L156.55,152.87L158.98,155.93L161.42,158.99L163.85,162.05L166.28,165.11L168.72,168.17L171.15,171.23L173.58,174.29L176.02,177.35L178.45,180.41L180.88,183.47L183.31,186.53L185.75,189.59L188.18,192.65L190.61,195.71L193.05,198.77L195.48,201.83L197.91,204.89L200.35,207.95L202.78,211.01L205.21,214.07L207.64,217.13L210.08,220.19L212.51,223.25L214.94,226.31L217.38,229.37L219.81,232.43L222.24,235.49L224.68,238.55L227.11,241.61L229.54,244.67L231.97,247.73L234.41,250.79L236.84,253.85L239.27,256.91L241.71,259.97L244.14,263.03L246.57,266.09L249.01,269.15L251.44,272.21L253.87,272.21L256.3,272.21L258.74,272.21L261.17,272.21L263.6,272.21L266.04,272.21L268.47,272.21L270.9,272.21L273.34,272.21L275.77,272.21L278.2,272.21L280.63,272.21L283.07,272.21L285.5,272.21" style="fill:none;stroke:#F15A60" />
<path d="M47.135,42.709A2.5,2.5 0 1 1 42.135,42.709A2.5,2.5 0 1 1 47.135,42.709Z" style="fill:none;stroke:#F15A60;stroke-width:0.5" />
<path d="M49.568,42.709A2.5,2.5 0 1 1 44.568,42.709A2.5,2.5 0 1 1 49.568,42.709Z" style="fill:none;stroke:#F15A60;stroke-width:0.5" />
<path d="M52.001,42.709A2.5,2.5 0 1 1 47.001,42.709A2.5,2.5 0 1 1 52.001,42.709Z" style="fill:none;stroke:#F15A60;stroke-width:0.5" />
<path d="M54.434,42.709A2.5,2.5 0 1 1 49.434,42.709A2.5,2.5 0 1 1 54.434,42.709Z" style="fill:none;stroke:#F15A60;stroke-width:0.5" />
<path d="M56.867,42.709A2.5,2.5 0 1 1 51.867,42.709A2.5,2.5 0 1 1 56.867,42.709Z" style="fill:none;stroke:#F15A60;stroke-width:0.5" />
<path d="M59.3,42.709A2.5,2.5 0 1 1 54.3,42.709A2.5,2.5 0 1 1 59.3,42.709Z" style="fill:none;stroke:#F15A60;stroke-width:0.5" />
<path d="M61.733,42.709A2.5,2.5 0 1 1 56.733,42.709A2.5,2.5 0 1 1 61.733,42.709Z" style="fill:none;stroke:#F15A60;stroke-width:0.5" />
<path d="M64.166,42.709A2.5,2.5 0 1 1 59.166,42.709A2.5,2.5 0 1 1 64.166,42.709Z" style="fill:none;stroke:#F15A60;stroke-width:0.5" />
<path d="M66.599,42.709A2.5,2.5 0 1 1 61.599,42.709A2.5,2.5 0 1 1 66.599,42.709Z" style="fill:none;stroke:#F15A60;stroke-width:0.5" />
<path d="M69.032,42.709A2.5,2.5 0 1 1 64.032,42.709A2.5,2.5 0 1 1 69.032,42.709Z" style="fill:none;stroke:#F15A60;stroke-width:0.5" />
<path d="M71.465,42.709A2.5,2.5 0 1 1 66.465,42.709A2.5,2.5 0 1 1 71.465,42.709Z" style="fill:none;stroke:#F15A60;stroke-width:0.5" />
<path d="M73.898,45.769A2.5,2.5 0 1 1 68.898,45.769A2.5,2.5 0 1 1 73.898,45.769Z" style="fill:none;stroke:#F15A60;stroke-width:0.5" />
<path d="M76.331,48.829A2.5,2.5 0 1 1 71.331,48.829A2.5,2.5 0 1 1 76.331,48.829Z" style="fill:none;stroke:#F15A60;stroke-width:0.5" />
<path d="M78.764,51.889A2.5,2.5 0 1 1 73.764,51.889A2.5,2.5 0 1 1 78.764,51.889Z" style="fill:none;stroke:#F15A60;stroke-width:0.5" />
<path d="M81.197,54.949A2.5,2.5 0 1 1 76.197,54.949A2.5,2.5 0 1 1 81.197,54.949Z" style="fill:none;stroke:#F15A60;stroke-width:0.5" />
<path d="M83.629,58.009A2.5,2.5 0 1 1 78.629,58.009A2.5,2.5 0 1 1 83.629,58.009Z" style="fill:none;stroke:#F15A60;stroke-width:0.5" />
<path d="M86.062,61.069A2.5,2.5 0 1 1 81.062,61.069A2.5,2.5 0 1 1 86.062,61.069Z" style="fill:none;stroke:#F15A60;stroke-width:0.5" />
<path d="M88.495,64.129A2.5,2.5 0 1 1 83.495,64.129A2.5,2.5 0 1 1 88.495,64.129Z" style="fill:none;stroke:#F15A60;stroke-width:0.5" />
<path d="M90.928,67.189A2.5,2.5 0 1 1 85.928,67.189A2.5,2.5 0 1 1 90.928,67.189Z" style="fill:none;stroke:#F15A60;stroke-width:0.5" />
<path d="M93.361,70.249A2.5,2.5 0 1 1 88.361,70.249A2.5,2.5 0 1 1 93.361,70.249Z" style="fill:none;stroke:#F15A60;stroke-width:0.5" />
<path d="M95.794,73.309A2.5,2.5 0 1 1 90.794,73.309A2.5,2.5 0 1 1 95.794,73.309Z" style="fill:none;stroke:#F15A60;stroke-width:0.5" />
<path d="M98.227,76.369A2.5,2.5 0 1 1 93.227,76.369A2.5,2.5 0 1 1 98.227,76.369Z" style="fill:none;stroke:#F15A60;stroke-width:0.5" />
<path d="M100.66,79.429A2.5,2.5 0 1 1 95.66,79.429A2.5,2.5 0 1 1 100.66,79.429Z" style="fill:none;stroke:#F15A60;stroke-width:0.5" />
<path d="M103.09,82.489A2.5,2.5 0 1 1 98.093,82.489A2.5,2.5 0 1 1 103.09,82.489Z" style="fill:none;stroke:#F15A60;stroke-width:0.5" />
<path d="M105.53,85.549A2.5,2.5 0 1 1 100.53,85.549A2.5,2.5 0 1 1 105.53,85.549Z" style="fill:none;stroke:#F15A60;stroke-width:0.5" />
<path d="M107.96,88.609A2.5,2.5 0 1 1 102.96,88.609A2.5,2.5 0 1 1 107.96,88.609Z" style="fill:none;stroke:#F15A60;stroke-width:0.5" />
<path d="M110.39,91.669A2.5,2.5 0 1 1 105.39,91.669A2.5,2.5 0 1 1 110.39,91.669Z" style="fill:none;stroke:#F15A60;stroke-width:0.5" />
<path d="M112.83,94.729A2.5,2.5 0 1 1 107.83,94.729A2.5,2.5 0 1 1 112.83,94.729Z" style="fill:none;stroke:#F15A60;stroke-width:0.5" />
<path d="M115.26,97.789A2.5,2.5 0 1 1 110.26,97.789A2.5,2.5 0 1 1 115.26,97.789Z" style="fill:none;stroke:#F15A60;stroke-width:0.5" />
<path d="M117.69,100.85A2.5,2.5 0 1 1 112.69,100.85A2.5,2.5 0 1 1 117.69,100.85Z" style="fill:none;stroke:#F15A60;stroke-width:0.5" />
<path d="M120.12,103.91A2.5,2.5 0 1 1 115.12,103.91A2.5,2.5 0 1 1 120.12,103.91Z" style="fill:none;stroke:#F15A60;stroke-width:0.5" />
<path d="M122.56,106.97A2.5,2.5 0 1 1 117.56,106.97A2.5,2.5 0 1 1 122.56,106.97Z" style="fill:none;stroke:#F15A60;stroke-width:0.5" />
<path d="M124.99,110.03A2.5,2.5 0 1 1 119.99,110.03A2.5,2.5 0 1 1 124.99,110.03Z" style="fill:none;stroke:#F15A60;stroke-width:0.5" />
<path d="M127.42,113.09A2.5,2.5 0 1 1 122.42,113.09A2.5,2.5 0 1 1 127.42,113.09Z" style="fill:none;stroke:#F15A60;stroke-width:0.5" />
<path d="M129.86,116.15A2.5,2.5 0 1 1 124.86,116.15A2.5,2.5 0 1 1 129.86,116.15Z" style="fill:none;stroke:#F15A60;stroke-width:0.5" />
<path d="M132.29,119.21A2.5,2.5 0 1 1 127.29,119.21A2.5,2.5 0 1 1 132.29,119.21Z" style="fill:none;stroke:#F15A60;stroke-width:0.5" />
<path d="M134.72,122.27A2.5,2.5 0 1 1 129.72,122.27A2.5,2.5 0 1 1 134.72,122.27Z" style="fill:none;stroke:#F15A60;stroke-width:0.5" />
<path d="M137.16,125.33A2.5,2.5 0 1 1 132.16,125.33A2.5,2.5 0 1 1 137.16,125.33Z" style="fill:none;stroke:#F15A60;stroke-width:0.5" />
<path d="M139.59,128.39A2.5,2.5 0 1 1 134.59,128.39A2.5,2.5 0 1 1 139.59,128.39Z" style="fill:none;stroke:#F15A60;stroke-width:0.5" />
<path d="M142.02,131.45A2.5,2.5 0 1 1 137.02,131.45A2.5,2.5 0 1 1 142.02,131.45Z" style="fill:none;stroke:#F15A60;stroke-width:0.5" />
<path d="M144.45,134.51A2.5,2.5 0 1 1 139.45,134.51A2.5,2.5 0 1 1 144.45,134.51Z" style="fill:none;stroke:#F15A60;stroke-width:0.5" />
<path d="M146.89,137.57A2.5,2.5 0 1 1 141.89,137.57A2.5,2.5 0 1 1 146.89,137.57Z" style="fill:none;stroke:#F15A60;stroke-width:0.5" />
<path d="M149.32,140.63A2.5,2.5 0 1 1 144.32,140.63A2.5,2.5 0 1 1 149.32,140.63Z" style="fill:none;stroke:#F15A60;stroke-width:0.5" />
<path d="M151.75,143.69A2.5,2.5 0 1 1 146.75,143.69A2.5,2.5 0 1 1 151.75,143.69Z" style="fill:none;stroke:#F15A60;stroke-width:0.5" />
<path d="M154.19,146.75A2.5,2.5 0 1 1 149.19,146.75A2.5,2.5 0 1 1 154.19,146.75Z" style="fill:none;stroke:#F15A60;stroke-width:0.5" />
<path d="M156.62,149.81A2.5,2.5 0 1 1 151.62,149.81A2.5,2.5 0 1 1 156.62,149.81Z" style="fill:none;stroke:#F15A60;stroke-width:0.5" />
<path d="M159.05,152.87A2.5,2.5 0 1 1 154.05,152.87A2.5,2.5 0 1 1 159.05,152.87Z" style="fill:none;stroke:#F15A60;stroke-width:0.5" />
<path d="M161.48,155.93A2.5,2.5 0 1 1 156.48,155.93A2.5,2.5 0 1 1 161.48,155.93Z" style="fill:none;stroke:#F15A60;stroke-width:0.5" />
<path d="M163.92,158.99A2.5,2.5 0 1 1 158.92,158.99A2.5,2.5 0 1 1 163.92,158.99Z" style="fill:none;stroke:#F15A60;stroke-width:0.5" />
<path d="M166.35,162.05A2.5,2.5 0 1 1 161.35,162.05A2.5,2.5 0 1 1 166.35,162.05Z" style="fill:none;stroke:#F15A60;stroke-width:0.5" />
<path d="M168.78,165.11A2.5,2.5 0 1 1 163.78,165.11A2.5,2.5 0 1 1 168.78,165.11Z" style="fill:none;stroke:#F15A60;stroke-width:0.5" />
<path d="M171.22,168.17A2.5,2.5 0 1 1 166.22,168.17A2.5,2.5 0 1 1 171.22,168.17Z" style="fill:none;stroke:#F15A60;stroke-width:0.5" />
<path d="M173.65,171.23A2.5,2.5 0 1 1 168.65,171.23A2.5,2.5 0 1 1 173.65,171.23Z" style="fill:none;stroke:#F15A60;stroke-width:0.5" />
<path d="M176.08,174.29A2.5,2.5 0 1 1 171.08,174.29A2.5,2.5 0 1 1 176.08,174.29Z" style="fill:none;stroke:#F15A60;stroke-width:0.5" />
<path d="M178.52,177.35A2.5,2.5 0 1 1 173.52,177.35A2.5,2.5 0 1 1 178.52,177.35Z" style="fill:none;stroke:#F15A60;stroke-width:0.5" />
<path d="M180.95,180.41A2.5,2.5 0 1 1 175.95,180.41A2.5,2.5 0 1 1 180.95,180.41Z" style="fill:none;stroke:#F15A60;stroke-width:0.5" />
<path d="M183.38,183.47A2.5,2.5 0 1 1 178.38,183.47A2.5,2.5 0 1 1 183.38,183.47Z" style="fill:none;stroke:#F15A60;stroke-width:0.5" />
<path d="M185.81,186.53A2.5,2.5 0 1 1 180.81,186.53A2.5,2.5 0 1 1 185.81,186.53Z" style="fill:none;stroke:#F15A60;stroke-width:0.5" />
<path d="M188.25,189.59A2.5,2.5 0 1 1 183.25,189.59A2.5,2.5 0 1 1 188.25,189.59Z" style="fill:none;stroke:#F15A60;stroke-width:0.5" />
<path d="M190.68,192.65A2.5,2.5 0 1 1 185.68,192.65A2.5,2.5 0 1 1 190.68,192.65Z" style="fill:none;stroke:#F15A60;stroke-width:0.5" />
<path d="M193.11,195.71A2.5,2.5 0 1 1 188.11,195.71A2.5,2.5 0 1 1 193.11,195.71Z" style="fill:none;stroke:#F15A60;stroke-width:0.5" />
<path d="M195.55,198.77A2.5,2.5 0 1 1 190.55,198.77A2.5,2.5 0 1 1 195.55,198.77Z" style="fill:none;stroke:#F15A60;stroke-width:0.5" />
<path d="M197.98,201.83A2.5,2.5 0 1 1 192.98,201.83A2.5,2.5 0 1 1 197.98,201.83Z" style="fill:none;stroke:#F15A60;stroke-width:0.5" />
<path d="M200.41,204.89A2.5,2.5 0 1 1 195.41,204.89A2.5,2.5 0 1 1 200.41,204.89Z" style="fill:none;stroke:#F15A60;stroke-width:0.5" />
<path d="M202.85,207.95A2.5,2.5 0 1 1 197.85,207.95A2.5,2.5 0 1 1 202.85,207.95Z" style="fill:none;stroke:#F15A60;stroke-width:0.5" />
<path d="M205.28,211.01A2.5,2.5 0 1 1 200.28,211.01A2.5,2.5 0 1 1 205.28,211.01Z" style="fill:none;stroke:#F15A60;stroke-width:0.5" />
<path d="M207.71,214.07A2.5,2.5 0 1 1 202.71,214.07A2.5,2.5 0 1 1 207.71,214.07Z" style="fill:none;stroke:#F15A60;stroke-width:0.5" />
<path d="M210.14,217.13A2.5,2.5 0 1 1 205.14,217.13A2.5,2.5 0 1 1 210.14,217.13Z" style="fill:none;stroke:#F15A60;stroke-width:0.5" />
<path d="M212.58,220.19A2.5,2.5 0 1 1 207.58,220.19A2.5,2.5 0 1 1 212.58,220.19Z" style="fill:none;stroke:#F15A60;stroke-width:0.5" />
<path d="M215.01,223.25A2.5,2.5 0 1 1 210.01,223.25A2.5,2.5 0 1 1 215.01,223.25Z" style="fill:none;stroke:#F15A60;stroke-width:0.5" />
<path d="M217.44,226.31A2.5,2.5 0 1 1 212.44,226.31A2.5,2.5 0 1 1 217.44,226.31Z" style="fill:none;stroke:#F15A60;stroke-width:0.5" />
<path d="M219.88,229.37A2.5,2.5 0 1 1 214.88,229.37A2.5,2.5 0 1 1 219.88,229.37Z" style="fill:none;stroke:#F15A60;stroke-width:0.5" />
<path d="M222.31,232.43A2.5,2.5 0 1 1 217.31,232.43A2.5,2.5 0 1 1 222.31,232.43Z" style="fill:none;stroke:#F15A60;stroke-width:0.5" />
<path d="M224.74,235.49A2.5,2.5 0 1 1 219.74,235.49A2.5,2.5 0 1 1 224.74,235.49Z" style="fill:none;stroke:#F15A60;stroke-width:0.5" />
<path d="M227.18,238.55A2.5,2.5 0 1 1 222.18,238.55A2.5,2.5 0 1 1 227.18,238.55Z" style="fill:none;stroke:#F15A60;stroke-width:0.5" />
<path d="M229.61,241.61A2.5,2.5 0 1 1 224.61,241.61A2.5,2.5 0 1 1 229.61,241.61Z" style="fill:none;stroke:#F15A60;stroke-width:0.5" />
<path d="M232.04,244.67A2.5,2.5 0 1 1 227.04,244.67A2.5,2.5 0 1 1 232.04,244.67Z" style="fill:none;stroke:#F15A60;stroke-width:0.5" />
<path d="M234.47,247.73A2.5,2.5 0 1 1 229.47,247.73A2.5,2.5 0 1 1 234.47,247.73Z" style="fill:none;stroke:#F15A60;stroke-width:0.5" />
<path d="M236.91,250.79A2.5,2.5 0 1 1 231.91,250.79A2.5,2.5 0 1 1 236.91,250.79Z" style="fill:none;stroke:#F15A60;stroke-width:0.5" />
<path d="M239.34,253.85A2.5,2.5 0 1 1 234.34,253.85A2.5,2.5 0 1 1 239.34,253.85Z" style="fill:none;stroke:#F15A60;stroke-width:0.5" />
<path d="M241.77,256.91A2.5,2.5 0 1 1 236.77,256.91A2.5,2.5 0 1 1 241.77,256.91Z" style="fill:none;stroke:#F15A60;stroke-width:0.5" />
<path d="M244.21,259.97A2.5,2.5 0 1 1 239.21,259.97A2.5,2.5 0 1 1 244.21,259.97Z" style="fill:none;stroke:#F15A60;stroke-width:0.5" />
<path d="M246.64,263.03A2.5,2.5 0 1 1 241.64,263.03A2.5,2.5 0 1 1 246.64,263.03Z" style="fill:none;stroke:#F15A60;stroke-width:0.5" />
<path d="M249.07,266.09A2.5,2.5 0 1 1 244.07,266.09A2.5,2.5 0 1 1 249.07,266.09Z" style="fill:none;stroke:#F15A60;stroke-width:0.5" />
<path d="M251.51,269.15A2.5,2.5 0 1 1 246.51,269.15A2.5,2.5 0 1 1 251.51,269.15Z" style="fill:none;stroke:#F15A60;stroke-width:0.5" />
<path d="M253.94,272.21A2.5,2.5 0 1 1 248.94,272.21A2.5,2.5 0 1 1 253.94,272.21Z" style="fill:none;stroke:#F15A60;stroke-width:0.5" />
<path d="M256.37,272.21A2.5,2.5 0 1 1 251.37,272.21A2.5,2.5 0 1 1 256.37,272.21Z" style="fill:none;stroke:#F15A60;stroke-width:0.5" />
<path d="M258.8,272.21A2.5,2.5 0 1 1 253.8,272.21A2.5,2.5 0 1 1 258.8,272.21Z" style="fill:none;stroke:#F15A60;stroke-width:0.5" />
<path d="M261.24,272.21A2.5,2.5 0 1 1 256.24,272.21A2.5,2.5 0 1 1 261.24,272.21Z" style="fill:none;stroke:#F15A60;stroke-width:0.5" />
<path d="M263.67,272.21A2.5,2.5 0 1 1 258.67,272.21A2.5,2.5 0 1 1 263.67,272.21Z" style="fill:none;stroke:#F15A60;stroke-width:0.5" />
<path d="M266.1,272.21A2.5,2.5 0 1 1 261.1,272.21A2.5,2.5 0 1 1 266.1,272.21Z" style="fill:none;stroke:#F15A60;stroke-width:0.5" />
<path d="M268.54,272.21A2.5,2.5 0 1 1 263.54,272.21A2.5,2.5 0 1 1 268.54,272.21Z" style="fill:none;stroke:#F15A60;stroke-width:0.5" />
<path d="M270.97,272.21A2.5,2.5 0 1 1 265.97,272.21A2.5,2.5 0 1 1 270.97,272.21Z" style="fill:none;stroke:#F15A60;stroke-width:0.5" />
<path d="M273.4,272.21A2.5,2.5 0 1 1 268.4,272.21A2.5,2.5 0 1 1 273.4,272.21Z" style="fill:none;stroke:#F15A60;stroke-width:0.5" />
<path d="M275.84,272.21A2.5,2.5 0 1 1 270.84,272.21A2.5,2.5 0 1 1 275.84,272.21Z" style="fill:none;stroke:#F15A60;stroke-width:0.5" />
<path d="M278.27,272.21A2.5,2.5 0 1 1 273.27,272.21A2.5,2.5 0 1 1 278.27,272.21Z" style="fill:none;stroke:#F15A60;stroke-width:0.5" />
<path d="M280.7,272.21A2.5,2.5 0 1 1 275.7,272.21A2.5,2.5 0 1 1 280.7,272.21Z" style="fill:none;stroke:#F15A60;stroke-width:0.5" />
<path d="M283.13,272.21A2.5,2.5 0 1 1 278.13,272.21A2.5,2.5 0 1 1 283.13,272.21Z" style="fill:none;stroke:#F15A60;stroke-width:0.5" />
<path d="M285.57,272.21A2.5,2.5 0 1 1 280.57,272.21A2.5,2.5 0 1 1 285.57,272.21Z" style="fill:none;stroke:#F15A60;stroke-width:0.5" />
<path d="M288,272.21A2.5,2.5 0 1 1 283,272.21A2.5,2.5 0 1 1 288,272.21Z" style="fill:none;stroke:#F15A60;stroke-width:0.5" />
<path d="M268,45.301L288,45.301" style="fill:none;stroke:#F15A60" />
<path d="M280.5,45.301A2.5,2.5 0 1 1 275.5,45.301A2.5,2.5 0 1 1 280.5,45.301Z" style="fill:none;stroke:#F15A60;stroke-width:0.5" />
<text x="247.01" y="-42.813" transform="scale(1, -1)"
	style="font-family:Liberation Serif;font-variant:normal;font-weight:normal;font-style:normal;font-size:12px">f(x)</text>
</g>
</svg>
